<svg xmlns="http://www.w3.org/2000/svg" viewBox="0 0 443.75 43.75" data-asc="1"><g fill="#ffffff"><g fill="#ffffff" transform="translate(0, 0)"><path d="M0 43.75L0 12.50L6.25 12.50L6.25 6.25L12.50 6.25L12.50 0L31.25 0L31.25 6.25L37.50 6.25L37.50 12.50L43.75 12.50L43.75 43.75L31.25 43.75L31.25 31.25L12.50 31.25L12.50 43.75L0 43.75M12.50 25L31.25 25L31.25 12.50L25 12.50L25 6.25L18.75 6.25L18.75 12.50L12.50 12.50L12.50 25ZM56.25 43.75L56.25 37.50L68.75 37.50L68.75 6.25L56.25 6.25L56.25 0L93.75 0L93.75 6.25L81.25 6.25L81.25 37.50L93.75 37.50L93.75 43.75L56.25 43.75ZM106.25 43.75L106.25 37.50L100 37.50L100 6.25L106.25 6.25L106.25 0L137.50 0L137.50 6.25L143.75 6.25L143.75 37.50L137.50 37.50L137.50 43.75L106.25 43.75M112.50 37.50L131.25 37.50L131.25 6.25L112.50 6.25L112.50 37.50ZM156.25 43.75L156.25 37.50L150 37.50L150 31.25L162.50 31.25L162.50 37.50L181.25 37.50L181.25 25L156.25 25L156.25 18.75L150 18.75L150 6.25L156.25 6.25L156.25 0L187.50 0L187.50 6.25L193.75 6.25L193.75 12.50L181.25 12.50L181.25 6.25L162.50 6.25L162.50 18.75L187.50 18.75L187.50 25L193.75 25L193.75 37.50L187.50 37.50L187.50 43.75L156.25 43.75ZM256.25 43.75L256.25 0L268.75 0L268.75 37.50L293.75 37.50L293.75 43.75L256.25 43.75ZM300 43.75L300 12.50L306.25 12.50L306.25 6.25L312.50 6.25L312.50 0L331.25 0L331.25 6.25L337.50 6.25L337.50 12.50L343.75 12.50L343.75 43.75L331.25 43.75L331.25 31.25L312.50 31.25L312.50 43.75L300 43.75M312.50 25L331.25 25L331.25 12.50L325 12.50L325 6.25L318.75 6.25L318.75 12.50L312.50 12.50L312.50 25ZM350 43.75L350 0L387.50 0L387.50 6.25L393.75 6.25L393.75 18.75L387.50 18.75L387.50 25L393.75 25L393.75 37.50L387.50 37.50L387.50 43.75L350 43.75M362.50 18.75L381.25 18.75L381.25 6.25L362.50 6.25L362.50 18.75M362.50 37.50L381.25 37.50L381.25 25L362.50 25L362.50 37.50ZM406.25 43.75L406.25 37.50L400 37.50L400 31.25L412.50 31.25L412.50 37.50L431.25 37.50L431.25 25L406.25 25L406.25 18.75L400 18.75L400 6.25L406.25 6.25L406.25 0L437.50 0L437.50 6.25L443.75 6.25L443.75 12.50L431.25 12.50L431.25 6.25L412.50 6.25L412.50 18.75L437.50 18.75L437.50 25L443.75 25L443.75 37.50L437.50 37.50L437.50 43.75L406.25 43.75Z"/></g></g></svg>