<svg xmlns="http://www.w3.org/2000/svg" viewBox="0 0 193.75 43.75" data-asc="1"><g fill="#afe8fb"><g fill="#afe8fb" transform="translate(0, 0)"><path d="M0 43.75L0 12.50L6.25 12.50L6.25 6.25L12.50 6.25L12.50 0L31.25 0L31.25 6.25L37.50 6.25L37.50 12.50L43.75 12.50L43.75 43.75L31.25 43.75L31.25 31.25L12.50 31.25L12.50 43.75L0 43.75M12.50 25L31.25 25L31.25 12.50L25 12.50L25 6.25L18.75 6.25L18.75 12.50L12.50 12.50L12.50 25ZM56.25 43.75L56.25 37.50L68.75 37.50L68.75 6.25L56.25 6.25L56.25 0L93.75 0L93.75 6.25L81.25 6.25L81.25 37.50L93.75 37.50L93.75 43.75L56.25 43.75ZM106.25 43.75L106.25 37.50L100 37.50L100 6.25L106.25 6.25L106.25 0L137.50 0L137.50 6.25L143.75 6.25L143.75 37.50L137.50 37.50L137.50 43.75L106.25 43.75M112.50 37.50L131.25 37.50L131.25 6.25L112.50 6.25L112.50 37.50ZM156.25 43.75L156.25 37.50L150 37.50L150 31.25L162.50 31.25L162.50 37.50L181.25 37.50L181.25 25L156.25 25L156.25 18.75L150 18.75L150 6.25L156.25 6.25L156.25 0L187.50 0L187.50 6.25L193.75 6.25L193.75 12.50L181.25 12.50L181.25 6.25L162.50 6.25L162.50 18.75L187.50 18.75L187.50 25L193.75 25L193.75 37.50L187.50 37.50L187.50 43.75L156.25 43.75Z"/></g></g></svg>