<svg xmlns="http://www.w3.org/2000/svg" viewBox="0 0 443.75 43.75" data-asc="1"><g fill="#ffffff"><g fill="#ffffff" transform="translate(0, 0)"><path d="M0 43.75L0 12.50L6.25 12.50L6.25 6.25L12.50 6.25L12.50 0L31.25 0L31.25 6.25L37.50 6.25L37.50 12.50L43.75 12.50L43.75 43.75L31.25 43.75L31.25 31.25L12.50 31.25L12.50 43.75L0 43.75M12.50 25L31.25 25L31.25 12.50L25 12.50L25 6.25L18.75 6.25L18.75 12.50L12.50 12.50L12.50 25ZM50 43.75L50 0L62.50 0L62.50 6.25L68.75 6.25L68.75 12.50L75 12.50L75 18.75L81.25 18.75L81.25 0L93.75 0L93.75 43.75L81.25 43.75L81.25 31.25L75 31.25L75 25L68.75 25L68.75 18.75L62.50 18.75L62.50 43.75L50 43.75ZM118.75 43.75L118.75 6.25L106.25 6.25L106.25 0L143.75 0L143.75 6.25L131.25 6.25L131.25 43.75L118.75 43.75ZM156.25 43.75L156.25 37.50L168.75 37.50L168.75 6.25L156.25 6.25L156.25 0L193.75 0L193.75 6.25L181.25 6.25L181.25 37.50L193.75 37.50L193.75 43.75L156.25 43.75ZM206.25 43.75L206.25 37.50L200 37.50L200 31.25L212.50 31.25L212.50 37.50L231.25 37.50L231.25 25L206.25 25L206.25 18.75L200 18.75L200 6.25L206.25 6.25L206.25 0L237.50 0L237.50 6.25L243.75 6.25L243.75 12.50L231.25 12.50L231.25 6.25L212.50 6.25L212.50 18.75L237.50 18.75L237.50 25L243.75 25L243.75 37.50L237.50 37.50L237.50 43.75L206.25 43.75ZM250 43.75L250 0L287.50 0L287.50 6.25L293.75 6.25L293.75 25L287.50 25L287.50 31.25L262.50 31.25L262.50 43.75L250 43.75M262.50 25L281.25 25L281.25 6.25L262.50 6.25L262.50 25ZM300 43.75L300 12.50L306.25 12.50L306.25 6.25L312.50 6.25L312.50 0L331.25 0L331.25 6.25L337.50 6.25L337.50 12.50L343.75 12.50L343.75 43.75L331.25 43.75L331.25 31.25L312.50 31.25L312.50 43.75L300 43.75M312.50 25L331.25 25L331.25 12.50L325 12.50L325 6.25L318.75 6.25L318.75 12.50L312.50 12.50L312.50 25ZM362.50 43.75L362.50 37.50L356.25 37.50L356.25 31.25L350 31.25L350 12.50L356.25 12.50L356.25 6.25L362.50 6.25L362.50 0L387.50 0L387.50 6.25L393.75 6.25L393.75 12.50L381.25 12.50L381.25 6.25L368.75 6.25L368.75 12.50L362.50 12.50L362.50 31.25L368.75 31.25L368.75 37.50L381.25 37.50L381.25 31.25L393.75 31.25L393.75 37.50L387.50 37.50L387.50 43.75L362.50 43.75ZM400 43.75L400 0L443.75 0L443.75 6.25L412.50 6.25L412.50 18.75L437.50 18.75L437.50 25L412.50 25L412.50 37.50L443.75 37.50L443.75 43.75L400 43.75Z"/></g></g></svg>