<svg
    xmlns="http://www.w3.org/2000/svg"
    viewBox="0 0 143.75 43.75"
    data-asc="1"
><g fill="#34454B"><g fill="#34454B" transform="translate(0, 0)"><path
                d="M0 43.75L0 12.50L6.25 12.50L6.25 6.25L12.50 6.25L12.50 0L31.25 0L31.25 6.25L37.50 6.25L37.50 12.50L43.75 12.50L43.75 43.75L31.25 43.75L31.25 31.25L12.50 31.25L12.50 43.75L0 43.75M12.50 25L31.25 25L31.25 12.50L25 12.50L25 6.25L18.75 6.25L18.75 12.50L12.50 12.50L12.50 25ZM50 43.75L50 0L87.50 0L87.50 6.25L93.75 6.25L93.75 25L87.50 25L87.50 31.25L62.50 31.25L62.50 43.75L50 43.75M62.50 25L81.25 25L81.25 6.25L62.50 6.25L62.50 25ZM100 43.75L100 0L137.50 0L137.50 6.25L143.75 6.25L143.75 25L137.50 25L137.50 31.25L112.50 31.25L112.50 43.75L100 43.75M112.50 25L131.25 25L131.25 6.25L112.50 6.25L112.50 25Z"
            /></g></g></svg>
