<svg xmlns="http://www.w3.org/2000/svg" viewBox="0 0 343.75 43.75" data-asc="1"><g fill="#ffffff"><g fill="#ffffff" transform="translate(0, 0)"><path d="M0 43.75L0 12.50L6.25 12.50L6.25 6.25L12.50 6.25L12.50 0L31.25 0L31.25 6.25L37.50 6.25L37.50 12.50L43.75 12.50L43.75 43.75L31.25 43.75L31.25 31.25L12.50 31.25L12.50 43.75L0 43.75M12.50 25L31.25 25L31.25 12.50L25 12.50L25 6.25L18.75 6.25L18.75 12.50L12.50 12.50L12.50 25ZM50 43.75L50 0L87.50 0L87.50 6.25L93.75 6.25L93.75 25L87.50 25L87.50 31.25L62.50 31.25L62.50 43.75L50 43.75M62.50 25L81.25 25L81.25 6.25L62.50 6.25L62.50 25ZM100 43.75L100 0L137.50 0L137.50 6.25L143.75 6.25L143.75 25L137.50 25L137.50 31.25L112.50 31.25L112.50 43.75L100 43.75M112.50 25L131.25 25L131.25 6.25L112.50 6.25L112.50 25ZM206.25 43.75L206.25 0L218.75 0L218.75 37.50L243.75 37.50L243.75 43.75L206.25 43.75ZM250 43.75L250 12.50L256.25 12.50L256.25 6.25L262.50 6.25L262.50 0L281.25 0L281.25 6.25L287.50 6.25L287.50 12.50L293.75 12.50L293.75 43.75L281.25 43.75L281.25 31.25L262.50 31.25L262.50 43.75L250 43.75M262.50 25L281.25 25L281.25 12.50L275 12.50L275 6.25L268.75 6.25L268.75 12.50L262.50 12.50L262.50 25ZM300 43.75L300 0L337.50 0L337.50 6.25L343.75 6.25L343.75 18.75L337.50 18.75L337.50 25L343.75 25L343.75 37.50L337.50 37.50L337.50 43.75L300 43.75M312.50 18.75L331.25 18.75L331.25 6.25L312.50 6.25L312.50 18.75M312.50 37.50L331.25 37.50L331.25 25L312.50 25L312.50 37.50Z"/></g></g></svg>