<svg xmlns="http://www.w3.org/2000/svg" viewBox="0 0 137.5 43.75" data-asc="1"><g fill="#ffffff"><g fill="#ffffff" transform="translate(0, 0)"><path d="M0 43.75L0 0L12.50 0L12.50 37.50L37.50 37.50L37.50 43.75L0 43.75ZM43.75 43.75L43.75 12.50L50 12.50L50 6.25L56.25 6.25L56.25 0L75 0L75 6.25L81.25 6.25L81.25 12.50L87.50 12.50L87.50 43.75L75 43.75L75 31.25L56.25 31.25L56.25 43.75L43.75 43.75M56.25 25L75 25L75 12.50L68.75 12.50L68.75 6.25L62.50 6.25L62.50 12.50L56.25 12.50L56.25 25ZM93.75 43.75L93.75 0L131.25 0L131.25 6.25L137.50 6.25L137.50 18.75L131.25 18.75L131.25 25L137.50 25L137.50 37.50L131.25 37.50L131.25 43.75L93.75 43.75M106.25 18.75L125 18.75L125 6.25L106.25 6.25L106.25 18.75M106.25 37.50L125 37.50L125 25L106.25 25L106.25 37.50Z"/></g></g></svg>